CommonSerif-BoldItalic.ufo
<glyph name="B" format="2">
  <advance width="617"/>
  <unicode hex="0042"/>
  <anchor x="433" y="740" name="top"/>
  <anchor x="273" y="-60" name="b.minus-60"/>
  <outline>
    <contour>
      <point x="277" y="645" type="curve"/>
      <point x="149" y="0" type="line"/>
      <point x="164" y="0" type="line" smooth="yes"/>
      <point x="216" y="0"/>
      <point x="269" y="-2"/>
      <point x="321" y="-2" type="curve" smooth="yes"/>
      <point x="476" y="-2"/>
      <point x="622" y="53"/>
      <point x="622" y="228" type="curve" smooth="yes"/>
      <point x="622" y="293"/>
      <point x="587" y="336"/>
      <point x="507" y="359" type="curve"/>
      <point x="508" y="361" type="line"/>
      <point x="583" y="393"/>
      <point x="628" y="452"/>
      <point x="628" y="535" type="curve" smooth="yes"/>
      <point x="628" y="593"/>
      <point x="580" y="647"/>
      <point x="426" y="647" type="curve" smooth="yes"/>
      <point x="378" y="647"/>
      <point x="311" y="645"/>
    </contour>
    <contour>
      <point x="337" y="562" type="line" smooth="yes"/>
      <point x="343" y="591"/>
      <point x="353" y="605"/>
      <point x="415" y="605" type="curve" smooth="yes"/>
      <point x="452" y="605"/>
      <point x="494" y="592"/>
      <point x="494" y="528" type="curve" smooth="yes"/>
      <point x="494" y="444"/>
      <point x="450" y="376"/>
      <point x="357" y="376" type="curve" smooth="yes"/>
      <point x="288" y="376" type="line"/>
      <point x="280" y="334" type="line"/>
      <point x="346" y="334" type="line" smooth="yes"/>
      <point x="418" y="334"/>
      <point x="482" y="310"/>
      <point x="482" y="236" type="curve" smooth="yes"/>
      <point x="482" y="120"/>
      <point x="425" y="40"/>
      <point x="301" y="40" type="curve" smooth="yes"/>
      <point x="256" y="40"/>
      <point x="242" y="49"/>
      <point x="242" y="67" type="curve" smooth="yes"/>
      <point x="242" y="72"/>
      <point x="243" y="78"/>
      <point x="244" y="84" type="curve"/>
    </contour>
    <contour>
      <point x="228" y="0" type="line"/>
      <point x="331" y="536" type="line"/>
      <point x="277" y="645" type="line"/>
      <point x="217" y="645"/>
      <point x="170" y="646"/>
      <point x="135" y="647" type="curve"/>
      <point x="130" y="642"/>
      <point x="127" y="624"/>
      <point x="129" y="613" type="curve"/>
      <point x="182" y="609"/>
      <point x="199" y="598"/>
      <point x="199" y="566" type="curve" smooth="yes"/>
      <point x="199" y="555"/>
      <point x="197" y="540"/>
      <point x="194" y="522" type="curve" smooth="yes"/>
      <point x="117" y="122" type="line" smooth="yes"/>
      <point x="104" y="55"/>
      <point x="86" y="40"/>
      <point x="16" y="32" type="curve"/>
      <point x="10" y="26"/>
      <point x="4" y="5"/>
      <point x="9" y="-2" type="curve"/>
      <point x="46" y="-1"/>
      <point x="115" y="0"/>
      <point x="145" y="0" type="curve" smooth="yes"/>
    </contour>
  </outline>
  <guideline angle="259.104" x="194" y="522"/>
</glyph>
<glyph name="D" format="2">
  <advance width="675"/>
  <unicode hex="0044"/>
  <anchor x="450" y="740" name="top"/>
  <anchor x="296" y="-60" name="b.minus-60"/>
  <outline>
    <contour>
      <point x="136" y="0" type="line"/>
      <point x="174" y="0"/>
      <point x="277" y="-2"/>
      <point x="315" y="-2" type="curve" smooth="yes"/>
      <point x="554" y="-2"/>
      <point x="709" y="153"/>
      <point x="709" y="387" type="curve" smooth="yes"/>
      <point x="709" y="566"/>
      <point x="582" y="646"/>
      <point x="415" y="646" type="curve" smooth="yes"/>
      <point x="366" y="646"/>
      <point x="326" y="645"/>
      <point x="277" y="645" type="curve"/>
    </contour>
    <contour>
      <point x="250" y="119" type="curve" smooth="yes"/>
      <point x="329" y="529" type="line" smooth="yes"/>
      <point x="340" y="584"/>
      <point x="368" y="604"/>
      <point x="403" y="604" type="curve" smooth="yes"/>
      <point x="532" y="604"/>
      <point x="568" y="525"/>
      <point x="568" y="426" type="curve" smooth="yes"/>
      <point x="568" y="291"/>
      <point x="493" y="40"/>
      <point x="326" y="40" type="curve" smooth="yes"/>
      <point x="271" y="40"/>
      <point x="246" y="48"/>
      <point x="246" y="88" type="curve" smooth="yes"/>
      <point x="246" y="97"/>
      <point x="248" y="107"/>
    </contour>
    <contour>
      <point x="228" y="0" type="line"/>
      <point x="331" y="536" type="line"/>
      <point x="277" y="645" type="line"/>
      <point x="217" y="645"/>
      <point x="170" y="646"/>
      <point x="135" y="647" type="curve"/>
      <point x="130" y="642"/>
      <point x="127" y="624"/>
      <point x="129" y="613" type="curve"/>
      <point x="182" y="609"/>
      <point x="199" y="598"/>
      <point x="199" y="566" type="curve" smooth="yes"/>
      <point x="199" y="555"/>
      <point x="197" y="540"/>
      <point x="194" y="522" type="curve" smooth="yes"/>
      <point x="117" y="122" type="line" smooth="yes"/>
      <point x="104" y="55"/>
      <point x="86" y="40"/>
      <point x="16" y="32" type="curve"/>
      <point x="10" y="26"/>
      <point x="4" y="5"/>
      <point x="9" y="-2" type="curve"/>
      <point x="46" y="-1"/>
      <point x="115" y="0"/>
      <point x="145" y="0" type="curve" smooth="yes"/>
    </contour>
  </outline>
  <guideline angle="259.077" x="408" y="521"/>
</glyph>
<glyph name="Tbar" format="2">
  <advance width="625"/>
  <unicode hex="0166"/>
  <outline>
    <component base="T"/>
    <contour>
      <point x="215" y="368" type="line" smooth="yes"/>
      <point x="203" y="368"/>
      <point x="191" y="349"/>
      <point x="191" y="339" type="curve" smooth="yes"/>
      <point x="191" y="334"/>
      <point x="193" y="329"/>
      <point x="199" y="329" type="curve" smooth="yes"/>
      <point x="555" y="329" type="line" smooth="yes"/>
      <point x="567" y="329"/>
      <point x="581" y="343.82"/>
      <point x="581" y="355" type="curve" smooth="yes"/>
      <point x="581" y="362"/>
      <point x="580" y="368"/>
      <point x="572" y="368" type="curve" smooth="yes"/>
    </contour>
  </outline>
</glyph>
<glyph name="uni0187" format="2">
  <advance width="644"/>
  <unicode hex="0187"/>
  <outline>
    <component base="C"/>
    <contour>
      <point x="816" y="743" type="curve" smooth="yes"/>
      <point x="762" y="743"/>
      <point x="700" y="696"/>
      <point x="680" y="595" type="curve" smooth="yes"/>
      <point x="679" y="590" type="line"/>
      <point x="710" y="590" type="line"/>
      <point x="711" y="595" type="line" smooth="yes"/>
      <point x="717" y="624"/>
      <point x="748" y="650"/>
      <point x="799" y="650" type="curve" smooth="yes"/>
      <point x="835" y="650"/>
      <point x="873" y="661"/>
      <point x="873" y="705" type="curve" smooth="yes"/>
      <point x="873" y="715"/>
      <point x="870" y="743"/>
    </contour>
  </outline>
</glyph>
<glyph name="uni01A7" format="2">
  <advance width="479"/>
  <unicode hex="01A7"/>
  <outline>
    <contour>
      <point x="208" y="631" type="curve"/>
      <point x="164" y="488" type="line"/>
      <point x="194" y="483" type="line"/>
      <point x="226" y="563"/>
      <point x="263" y="624"/>
      <point x="362" y="624" type="curve" smooth="yes"/>
      <point x="420" y="624"/>
      <point x="454" y="584"/>
      <point x="454" y="533" type="curve" smooth="yes"/>
      <point x="454" y="526"/>
      <point x="454" y="519"/>
      <point x="452" y="512" type="curve"/>
      <point x="438" y="429"/>
      <point x="332" y="391"/>
      <point x="287" y="376" type="curve" smooth="yes"/>
      <point x="198" y="346"/>
      <point x="98" y="305"/>
      <point x="77" y="184" type="curve" smooth="yes"/>
      <point x="75" y="173"/>
      <point x="74" y="162"/>
      <point x="74" y="152" type="curve" smooth="yes"/>
      <point x="74" y="63"/>
      <point x="138" y="-12"/>
      <point x="240" y="-12" type="curve" smooth="yes"/>
      <point x="338" y="-12"/>
      <point x="360" y="23"/>
      <point x="384" y="23" type="curve" smooth="yes"/>
      <point x="396" y="23"/>
      <point x="399" y="17"/>
      <point x="398" y="1" type="curve"/>
      <point x="429" y="0" type="line"/>
      <point x="434" y="31"/>
      <point x="440" y="54"/>
      <point x="443" y="68" type="curve"/>
      <point x="451" y="101"/>
      <point x="464" y="133"/>
      <point x="478" y="184" type="curve"/>
      <point x="450" y="187" type="line"/>
      <point x="446" y="178" type="line"/>
      <point x="423" y="102"/>
      <point x="341" y="24"/>
      <point x="264" y="24" type="curve" smooth="yes"/>
      <point x="196" y="24"/>
      <point x="149" y="59"/>
      <point x="149" y="123" type="curve" smooth="yes"/>
      <point x="149" y="131"/>
      <point x="150" y="140"/>
      <point x="152" y="149" type="curve"/>
      <point x="168" y="240"/>
      <point x="222" y="267"/>
      <point x="288" y="291" type="curve" smooth="yes"/>
      <point x="364" y="318"/>
      <point x="496" y="368"/>
      <point x="517" y="485" type="curve"/>
      <point x="518" y="495"/>
      <point x="519" y="503"/>
      <point x="519" y="513" type="curve" smooth="yes"/>
      <point x="519" y="603"/>
      <point x="438" y="658"/>
      <point x="359" y="658" type="curve" smooth="yes"/>
      <point x="266" y="658"/>
      <point x="265" y="639"/>
    </contour>
  </outline>
</glyph>
<glyph name="uni021D" format="2">
  <advance width="383"/>
  <unicode hex="021D"/>
  <outline>
    <contour>
      <point x="37" y="-229" type="curve" smooth="yes"/>
      <point x="56" y="-229"/>
      <point x="77" y="-212"/>
      <point x="82" y="-189" type="curve"/>
      <point x="83" y="-182"/>
      <point x="83" y="-173"/>
      <point x="86" y="-160" type="curve" smooth="yes"/>
      <point x="94" y="-125"/>
      <point x="128" y="-105"/>
      <point x="184" y="-87" type="curve" smooth="yes"/>
      <point x="237" y="-70"/>
      <point x="341" y="-24"/>
      <point x="366" y="83" type="curve" smooth="yes"/>
      <point x="369" y="95"/>
      <point x="371" y="106"/>
      <point x="371" y="118" type="curve" smooth="yes"/>
      <point x="371" y="169"/>
      <point x="339" y="210"/>
      <point x="281" y="224" type="curve"/>
      <point x="301" y="235"/>
      <point x="364" y="276"/>
      <point x="378" y="336" type="curve"/>
      <point x="380" y="342"/>
      <point x="380" y="349"/>
      <point x="380" y="354" type="curve" smooth="yes"/>
      <point x="380" y="412"/>
      <point x="317" y="442"/>
      <point x="275" y="442" type="curve" smooth="yes"/>
      <point x="209" y="442"/>
      <point x="172" y="430"/>
      <point x="145" y="430" type="curve" smooth="yes"/>
      <point x="141" y="430" type="line"/>
      <point x="106" y="313" type="line"/>
      <point x="126" y="311" type="line"/>
      <point x="151" y="377"/>
      <point x="184" y="408"/>
      <point x="248" y="408" type="curve" smooth="yes"/>
      <point x="282" y="408"/>
      <point x="315" y="390"/>
      <point x="315" y="348" type="curve" smooth="yes"/>
      <point x="315" y="341"/>
      <point x="315" y="334"/>
      <point x="313" y="326" type="curve"/>
      <point x="303" y="280"/>
      <point x="241" y="215"/>
      <point x="160" y="202" type="curve"/>
      <point x="154" y="177" type="line"/>
      <point x="166" y="179"/>
      <point x="177" y="181"/>
      <point x="187" y="181" type="curve" smooth="yes"/>
      <point x="229" y="181"/>
      <point x="293" y="172"/>
      <point x="293" y="103" type="curve" smooth="yes"/>
      <point x="293" y="93"/>
      <point x="292" y="82"/>
      <point x="289" y="69" type="curve" smooth="yes"/>
      <point x="274" y="6"/>
      <point x="233" y="-32"/>
      <point x="182" y="-51" type="curve" smooth="yes"/>
      <point x="95" y="-83"/>
      <point x="21" y="-158"/>
      <point x="12" y="-194" type="curve" smooth="yes"/>
      <point x="11" y="-198"/>
      <point x="11" y="-201"/>
      <point x="11" y="-204" type="curve" smooth="yes"/>
      <point x="11" y="-223"/>
      <point x="27" y="-229"/>
    </contour>
  </outline>
</glyph>
<glyph name="uni0274" format="2">
  <advance width="562"/>
  <unicode hex="0274"/>
  <outline>
    <contour>
      <point x="73" y="23" type="curve"/>
      <point x="43" y="23" type="line" smooth="yes"/>
      <point x="37" y="23"/>
      <point x="35" y="20"/>
      <point x="34" y="16" type="curve"/>
      <point x="30" y="-3" type="line"/>
      <point x="30" y="-3"/>
      <point x="89" y="0"/>
      <point x="126" y="0" type="curve" smooth="yes"/>
      <point x="164" y="0"/>
      <point x="223" y="-2"/>
      <point x="223" y="-2" type="curve"/>
      <point x="227" y="16" type="line"/>
      <point x="229" y="22"/>
      <point x="224" y="24"/>
      <point x="220" y="24" type="curve" smooth="yes"/>
      <point x="191" y="24" type="line" smooth="yes"/>
      <point x="169" y="24"/>
      <point x="161" y="28"/>
      <point x="161" y="43" type="curve" smooth="yes"/>
      <point x="161" y="50"/>
      <point x="163" y="58"/>
      <point x="165" y="69" type="curve"/>
      <point x="225" y="330" type="line"/>
      <point x="395" y="13" type="line"/>
      <point x="402" y="-1"/>
      <point x="414" y="-8"/>
      <point x="430" y="-8" type="curve" smooth="yes"/>
      <point x="444" y="-8"/>
      <point x="453" y="1"/>
      <point x="458" y="21" type="curve" smooth="yes"/>
      <point x="535" y="357" type="line" smooth="yes"/>
      <point x="544" y="394"/>
      <point x="551" y="401"/>
      <point x="583" y="402" type="curve"/>
      <point x="612" y="402" type="line" smooth="yes"/>
      <point x="618" y="402"/>
      <point x="620" y="406"/>
      <point x="622" y="410" type="curve"/>
      <point x="626" y="429" type="line"/>
      <point x="626" y="429"/>
      <point x="566" y="426"/>
      <point x="528" y="426" type="curve" smooth="yes"/>
      <point x="491" y="426"/>
      <point x="433" y="429"/>
      <point x="433" y="429" type="curve"/>
      <point x="428" y="410" type="line"/>
      <point x="428" y="410"/>
      <point x="428" y="409"/>
      <point x="428" y="409" type="curve"/>
      <point x="428" y="406"/>
      <point x="428" y="403"/>
      <point x="434" y="403" type="curve" smooth="yes"/>
      <point x="464" y="403" type="line"/>
      <point x="487" y="402"/>
      <point x="495" y="396"/>
      <point x="495" y="382" type="curve" smooth="yes"/>
      <point x="495" y="375"/>
      <point x="493" y="367"/>
      <point x="491" y="357" type="curve"/>
      <point x="432" y="101" type="line"/>
      <point x="252" y="429" type="line"/>
      <point x="129" y="429" type="line"/>
      <point x="125" y="410" type="line"/>
      <point x="124" y="406"/>
      <point x="126" y="404"/>
      <point x="130" y="403" type="curve"/>
      <point x="161" y="403" type="line"/>
      <point x="184" y="402"/>
      <point x="191" y="397"/>
      <point x="191" y="383" type="curve" smooth="yes"/>
      <point x="191" y="377"/>
      <point x="189" y="369"/>
      <point x="187" y="358" type="curve"/>
      <point x="121" y="69" type="line" smooth="yes"/>
      <point x="114" y="40"/>
      <point x="110" y="24"/>
    </contour>
  </outline>
</glyph>
<glyph name="uni030B" format="2">
  <unicode hex="030B"/>
  <anchor x="-153" y="500" name="_top"/>
  <outline>
    <contour>
      <point x="-150" y="640" type="curve" smooth="yes"/>
      <point x="-150" y="659"/>
      <point x="-170" y="676"/>
      <point x="-192" y="676" type="curve" smooth="yes"/>
      <point x="-203" y="676"/>
      <point x="-217.131" y="674.059"/>
      <point x="-222" y="663" type="curve" smooth="yes"/>
      <point x="-281" y="529" type="line" smooth="yes"/>
      <point x="-283.17" y="524.071"/>
      <point x="-284" y="520"/>
      <point x="-284" y="516" type="curve" smooth="yes"/>
      <point x="-284" y="506"/>
      <point x="-279" y="500"/>
      <point x="-271" y="500" type="curve" smooth="yes"/>
      <point x="-264" y="500"/>
      <point x="-256.167" y="504.139"/>
      <point x="-247" y="515" type="curve" smooth="yes"/>
      <point x="-155" y="624" type="line" smooth="yes"/>
      <point x="-150.87" y="628.893"/>
      <point x="-150" y="635"/>
    </contour>
    <contour>
      <point x="-21" y="628" type="curve" smooth="yes"/>
      <point x="-21" y="652"/>
      <point x="-37" y="671"/>
      <point x="-62" y="671" type="curve" smooth="yes"/>
      <point x="-81" y="671"/>
      <point x="-88.2336" y="656.143"/>
      <point x="-90" y="653" type="curve" smooth="yes"/>
      <point x="-158" y="532" type="line" smooth="yes"/>
      <point x="-160.857" y="526.917"/>
      <point x="-162" y="522"/>
      <point x="-162" y="518" type="curve" smooth="yes"/>
      <point x="-162" y="509"/>
      <point x="-154" y="503"/>
      <point x="-147" y="503" type="curve" smooth="yes"/>
      <point x="-142" y="503"/>
      <point x="-137.129" y="506.133"/>
      <point x="-132" y="511" type="curve" smooth="yes"/>
      <point x="-34" y="604" type="line" smooth="yes"/>
      <point x="-26.2892" y="611.317"/>
      <point x="-21" y="616"/>
    </contour>
  </outline>
</glyph>
<glyph name="uni030F" format="2">
  <unicode hex="030F"/>
  <anchor x="-145" y="500" name="_top"/>
  <outline>
    <contour>
      <point x="-148" y="640" type="curve"/>
      <point x="-148" y="635"/>
      <point x="-148.364" y="628.762"/>
      <point x="-145" y="624" type="curve" smooth="yes"/>
      <point x="-68" y="515" type="line"/>
      <point x="-61" y="504"/>
      <point x="-53" y="500"/>
      <point x="-46" y="500" type="curve" smooth="yes"/>
      <point x="-38" y="500"/>
      <point x="-33" y="506"/>
      <point x="-31" y="515" type="curve"/>
      <point x="-31" y="519"/>
      <point x="-30.5415" y="524.114"/>
      <point x="-32" y="529" type="curve" smooth="yes"/>
      <point x="-72" y="663" type="line"/>
      <point x="-76" y="674"/>
      <point x="-90" y="676"/>
      <point x="-101" y="676" type="curve" smooth="yes"/>
      <point x="-123" y="676"/>
      <point x="-145" y="659"/>
    </contour>
    <contour>
      <point x="-278" y="628" type="curve" smooth="yes"/>
      <point x="-279.674" y="615.95"/>
      <point x="-276.214" y="610.808"/>
      <point x="-269" y="603" type="curve" smooth="yes"/>
      <point x="-184" y="511" type="line" smooth="yes"/>
      <point x="-179.201" y="505.806"/>
      <point x="-175" y="503"/>
      <point x="-170" y="503" type="curve" smooth="yes"/>
      <point x="-162" y="503"/>
      <point x="-154.377" y="509.05"/>
      <point x="-153" y="518" type="curve" smooth="yes"/>
      <point x="-152.373" y="522.075"/>
      <point x="-152.908" y="527.038"/>
      <point x="-155" y="532" type="curve" smooth="yes"/>
      <point x="-206" y="653" type="line" smooth="yes"/>
      <point x="-207.228" y="655.914"/>
      <point x="-212" y="671"/>
      <point x="-231" y="671" type="curve" smooth="yes"/>
      <point x="-256" y="671"/>
      <point x="-274.673" y="651.957"/>
    </contour>
  </outline>
</glyph>
<glyph name="uni031D" format="2">
  <unicode hex="031D"/>
  <anchor x="-262" y="-60" name="_b.minus-60"/>
  <outline>
    <contour>
      <point x="-377" y="-222" type="curve"/>
      <point x="-209" y="-222" type="line"/>
      <point x="-205" y="-217"/>
      <point x="-202" y="-211"/>
      <point x="-201" y="-204" type="curve"/>
      <point x="-199" y="-197"/>
      <point x="-199" y="-188"/>
      <point x="-202" y="-178" type="curve"/>
      <point x="-264" y="-178" type="line"/>
      <point x="-242" y="-70" type="line"/>
      <point x="-247" y="-63"/>
      <point x="-254" y="-60"/>
      <point x="-262" y="-60" type="curve" smooth="yes"/>
      <point x="-269" y="-60"/>
      <point x="-278" y="-63"/>
      <point x="-285" y="-67" type="curve"/>
      <point x="-307" y="-178" type="line"/>
      <point x="-372" y="-178" type="line"/>
      <point x="-377" y="-185"/>
      <point x="-380" y="-191"/>
      <point x="-381" y="-198" type="curve"/>
      <point x="-383" y="-205"/>
      <point x="-382" y="-213"/>
    </contour>
  </outline>
</glyph>
<glyph name="uni0344" format="2">
  <unicode hex="0344"/>
  <anchor x="-81" y="500" name="_top"/>
  <outline>
    <contour>
      <point x="27.8359" y="757" type="curve" smooth="yes"/>
      <point x="14.8359" y="757"/>
      <point x="3.06883" y="750.87"/>
      <point x="-3.16414" y="740" type="curve" smooth="yes"/>
      <point x="-85.1641" y="597" type="line" smooth="yes"/>
      <point x="-87.3594" y="593.172"/>
      <point x="-89.3692" y="588.915"/>
      <point x="-89.3692" y="584.322" type="curve" smooth="yes"/>
      <point x="-89.3692" y="578.569"/>
      <point x="-84.1122" y="574"/>
      <point x="-77.1641" y="574" type="curve" smooth="yes"/>
      <point x="-73.1641" y="574"/>
      <point x="-67.6249" y="578.391"/>
      <point x="-64.1641" y="582" type="curve" smooth="yes"/>
      <point x="52.8359" y="704" type="line" smooth="yes"/>
      <point x="58.8845" y="710.307"/>
      <point x="63.3731" y="718.626"/>
      <point x="63.3731" y="727.323" type="curve" smooth="yes"/>
      <point x="63.3731" y="744.603"/>
      <point x="46.0177" y="757"/>
    </contour>
    <contour>
      <point x="-46.0382" y="537.34" type="curve" smooth="yes"/>
      <point x="-46.0382" y="516.334"/>
      <point x="-30.2123" y="500"/>
      <point x="-8.16414" y="500" type="curve" smooth="yes"/>
      <point x="20.3824" y="500"/>
      <point x="47.7099" y="526.052"/>
      <point x="47.7099" y="554.66" type="curve" smooth="yes"/>
      <point x="47.7099" y="575.666"/>
      <point x="31.8841" y="592"/>
      <point x="9.83586" y="592" type="curve" smooth="yes"/>
      <point x="-17.8458" y="592"/>
      <point x="-46.0382" y="565.677"/>
    </contour>
    <contour>
      <point x="-206.038" y="537.34" type="curve" smooth="yes"/>
      <point x="-206.038" y="516.334"/>
      <point x="-190.212" y="500"/>
      <point x="-168.164" y="500" type="curve" smooth="yes"/>
      <point x="-139.618" y="500"/>
      <point x="-112.29" y="526.052"/>
      <point x="-112.29" y="554.66" type="curve" smooth="yes"/>
      <point x="-112.29" y="575.666"/>
      <point x="-128.116" y="592"/>
      <point x="-150.164" y="592" type="curve" smooth="yes"/>
      <point x="-177.846" y="592"/>
      <point x="-206.038" y="565.677"/>
    </contour>
  </outline>
</glyph>
<glyph name="uni0349" format="2">
  <unicode hex="0349"/>
  <anchor x="-214" y="-60" name="_b.minus-60"/>
  <outline>
    <contour>
      <point x="-263" y="-60" type="line"/>
      <point x="-273" y="-65"/>
      <point x="-279" y="-74"/>
      <point x="-280" y="-79" type="curve"/>
      <point x="-281" y="-85"/>
      <point x="-281" y="-90"/>
      <point x="-275" y="-99" type="curve"/>
      <point x="-178" y="-99" type="line"/>
      <point x="-192" y="-169" type="line"/>
      <point x="-189" y="-179"/>
      <point x="-182" y="-181"/>
      <point x="-177" y="-181" type="curve" smooth="yes"/>
      <point x="-172" y="-181"/>
      <point x="-161" y="-176"/>
      <point x="-151" y="-162" type="curve"/>
      <point x="-132" y="-71" type="line"/>
      <point x="-142" y="-60" type="line"/>
    </contour>
  </outline>
</glyph>
<glyph name="uni0363" format="2">
  <unicode hex="0363"/>
  <anchor x="-57" y="509" name="_top"/>
  <outline>
    <contour>
      <point x="-23" y="509" type="curve" smooth="yes"/>
      <point x="-13" y="509"/>
      <point x="-3" y="513"/>
      <point x="8" y="521" type="curve"/>
      <point x="5" y="532" type="line"/>
      <point x="3" y="531"/>
      <point x="0" y="530"/>
      <point x="-2" y="530" type="curve" smooth="yes"/>
      <point x="-7" y="530"/>
      <point x="-7.7255" y="539.144"/>
      <point x="-3" y="561" type="curve" smooth="yes"/>
      <point x="5" y="598" type="line" smooth="yes"/>
      <point x="15.9832" y="648.797"/>
      <point x="-15" y="660"/>
      <point x="-41" y="660" type="curve" smooth="yes"/>
      <point x="-64" y="660"/>
      <point x="-100" y="643"/>
      <point x="-105" y="621" type="curve"/>
      <point x="-106" y="613"/>
      <point x="-97" y="607"/>
      <point x="-89" y="607" type="curve" smooth="yes"/>
      <point x="-79" y="607"/>
      <point x="-71" y="614"/>
      <point x="-70" y="618" type="curve"/>
      <point x="-70" y="618"/>
      <point x="-70" y="619"/>
      <point x="-70" y="619" type="curve"/>
      <point x="-70" y="621"/>
      <point x="-69" y="624"/>
      <point x="-70" y="625" type="curve" smooth="yes"/>
      <point x="-71" y="626"/>
      <point x="-70" y="628"/>
      <point x="-69" y="632" type="curve"/>
      <point x="-68" y="641"/>
      <point x="-63" y="645"/>
      <point x="-45" y="645" type="curve" smooth="yes"/>
      <point x="-33" y="645"/>
      <point x="-22" y="642"/>
      <point x="-30" y="602" type="curve"/>
      <point x="-57" y="594" type="line" smooth="yes"/>
      <point x="-92.579" y="583.458"/>
      <point x="-117" y="570"/>
      <point x="-122" y="547" type="curve"/>
      <point x="-126" y="524"/>
      <point x="-111" y="509"/>
      <point x="-88" y="509" type="curve" smooth="yes"/>
      <point x="-75.1443" y="509"/>
      <point x="-65" y="514"/>
      <point x="-44" y="530" type="curve"/>
      <point x="-44" y="520"/>
      <point x="-40" y="509"/>
    </contour>
    <contour>
      <point x="-34" y="587" type="curve"/>
      <point x="-42" y="546" type="line"/>
      <point x="-59" y="533"/>
      <point x="-63" y="528"/>
      <point x="-74" y="528" type="curve" smooth="yes"/>
      <point x="-88" y="528"/>
      <point x="-89" y="538"/>
      <point x="-87" y="549" type="curve" smooth="yes"/>
      <point x="-85" y="560"/>
      <point x="-76" y="576"/>
    </contour>
  </outline>
</glyph>
<glyph name="uni037E" format="2">
  <advance width="219"/>
  <unicode hex="037E"/>
  <outline>
    <contour>
      <point x="122" y="95" type="curve" smooth="yes"/>
      <point x="90" y="95"/>
      <point x="64" y="72"/>
      <point x="60" y="44" type="curve"/>
      <point x="59" y="41"/>
      <point x="59" y="37"/>
      <point x="59" y="34" type="curve" smooth="yes"/>
      <point x="59" y="9"/>
      <point x="76" y="-9"/>
      <point x="102" y="-9" type="curve" smooth="yes"/>
      <point x="111" y="-9"/>
      <point x="121" y="-7"/>
      <point x="128" y="-2" type="curve"/>
      <point x="129" y="-10"/>
      <point x="129" y="-21"/>
      <point x="127" y="-29" type="curve"/>
      <point x="124" y="-50"/>
      <point x="94" y="-83"/>
      <point x="39" y="-95" type="curve"/>
      <point x="41" y="-115" type="line"/>
      <point x="102" y="-104"/>
      <point x="160" y="-64"/>
      <point x="170" y="-4" type="curve" smooth="yes"/>
      <point x="172" y="7"/>
      <point x="173" y="17"/>
      <point x="173" y="26" type="curve" smooth="yes"/>
      <point x="173" y="69"/>
      <point x="154" y="95"/>
    </contour>
    <contour>
      <point x="117" y="354" type="curve"/>
      <point x="117" y="351"/>
      <point x="116" y="348"/>
      <point x="116" y="345" type="curve" smooth="yes"/>
      <point x="116" y="320"/>
      <point x="135" y="301"/>
      <point x="161" y="301" type="curve" smooth="yes"/>
      <point x="190" y="301"/>
      <point x="218" y="325"/>
      <point x="224" y="354" type="curve"/>
      <point x="224" y="357"/>
      <point x="225" y="360"/>
      <point x="225" y="363" type="curve" smooth="yes"/>
      <point x="225" y="388"/>
      <point x="206" y="407"/>
      <point x="180" y="407" type="curve" smooth="yes"/>
      <point x="150" y="407"/>
      <point x="122" y="383"/>
    </contour>
  </outline>
</glyph>
<glyph name="Alphatonos" format="2">
  <advance width="722"/>
  <unicode hex="0386"/>
  <outline>
    <component base="A" xOffset="12"/>
    <contour>
      <point x="200" y="725" type="curve" smooth="yes"/>
      <point x="189" y="725"/>
      <point x="176" y="719"/>
      <point x="172" y="708" type="curve" smooth="yes"/>
      <point x="125" y="573" type="line" smooth="yes"/>
      <point x="124" y="570"/>
      <point x="123" y="568"/>
      <point x="122" y="565" type="curve"/>
      <point x="122" y="564"/>
      <point x="121" y="562"/>
      <point x="121" y="560" type="curve" smooth="yes"/>
      <point x="121" y="558"/>
      <point x="121" y="557"/>
      <point x="121" y="556" type="curve"/>
      <point x="121" y="556" type="line"/>
      <point x="121" y="549"/>
      <point x="139" y="542"/>
      <point x="147" y="542" type="curve" smooth="yes"/>
      <point x="151" y="542"/>
      <point x="155" y="546"/>
      <point x="158" y="550" type="curve"/>
      <point x="256" y="662" type="line"/>
      <point x="260" y="667"/>
      <point x="261" y="672"/>
      <point x="261" y="677" type="curve" smooth="yes"/>
      <point x="261" y="681"/>
      <point x="260" y="685"/>
      <point x="257" y="688" type="curve"/>
      <point x="251" y="698"/>
      <point x="239" y="709"/>
      <point x="227" y="716" type="curve"/>
      <point x="217" y="721"/>
      <point x="207" y="725"/>
    </contour>
  </outline>
</glyph>
<glyph name="phi" format="2">
  <advance width="612"/>
  <unicode hex="03C6"/>
  <outline>
    <contour>
      <point x="215" y="-233" type="line"/>
      <point x="299" y="-187" type="line"/>
      <point x="306" y="-170"/>
      <point x="317" y="-126"/>
      <point x="323" y="-100" type="curve" smooth="yes"/>
      <point x="343" y="-7" type="line"/>
      <point x="499" y="13"/>
      <point x="632" y="125"/>
      <point x="632" y="290" type="curve" smooth="yes"/>
      <point x="632" y="376"/>
      <point x="577" y="445"/>
      <point x="488" y="445" type="curve" smooth="yes"/>
      <point x="373" y="445"/>
      <point x="332" y="363"/>
      <point x="310" y="261" type="curve" smooth="yes"/>
      <point x="262" y="34" type="line"/>
      <point x="205" y="50"/>
      <point x="191" y="102"/>
      <point x="191" y="155" type="curve" smooth="yes"/>
      <point x="191" y="256"/>
      <point x="238" y="353"/>
      <point x="319" y="414" type="curve"/>
      <point x="300" y="446" type="line"/>
      <point x="179" y="386"/>
      <point x="75" y="305"/>
      <point x="75" y="160" type="curve" smooth="yes"/>
      <point x="75" y="64"/>
      <point x="130" y="5"/>
      <point x="253" y="-8" type="curve"/>
      <point x="238" y="-76"/>
      <point x="223" y="-134"/>
      <point x="197" y="-199" type="curve"/>
    </contour>
    <contour>
      <point x="352" y="35" type="curve"/>
      <point x="397" y="248" type="line" smooth="yes"/>
      <point x="404" y="286"/>
      <point x="432" y="402"/>
      <point x="469" y="402" type="curve" smooth="yes"/>
      <point x="498" y="402"/>
      <point x="519" y="380"/>
      <point x="519" y="321" type="curve" smooth="yes"/>
      <point x="519" y="209"/>
      <point x="468" y="72"/>
    </contour>
  </outline>
</glyph>
<glyph name="uni0474" format="2">
  <advance width="691"/>
  <unicode hex="0474"/>
  <outline>
    <contour>
      <point x="559" y="511" type="curve" smooth="yes"/>
      <point x="394" y="213" type="line"/>
      <point x="347" y="129" type="line"/>
      <point x="333" y="216" type="line"/>
      <point x="277" y="572" type="line"/>
      <point x="276" y="580"/>
      <point x="276" y="586"/>
      <point x="277" y="592" type="curve" smooth="yes"/>
      <point x="280" y="608"/>
      <point x="294" y="616"/>
      <point x="330" y="616" type="curve" smooth="yes"/>
      <point x="357" y="616" type="line" smooth="yes"/>
      <point x="362" y="616"/>
      <point x="365" y="619"/>
      <point x="367" y="625" type="curve"/>
      <point x="370" y="643" type="line"/>
      <point x="369" y="645" type="line"/>
      <point x="369" y="645"/>
      <point x="279" y="642"/>
      <point x="244" y="642" type="curve" smooth="yes"/>
      <point x="205" y="642"/>
      <point x="127" y="645"/>
      <point x="127" y="645" type="curve"/>
      <point x="125" y="643" type="line"/>
      <point x="122" y="625" type="line"/>
      <point x="122" y="624"/>
      <point x="121" y="623"/>
      <point x="121" y="622" type="curve" smooth="yes"/>
      <point x="121" y="618"/>
      <point x="124" y="616"/>
      <point x="128" y="616" type="curve" smooth="yes"/>
      <point x="140" y="616" type="line" smooth="yes"/>
      <point x="180" y="616"/>
      <point x="188" y="601"/>
      <point x="192" y="572" type="curve" smooth="yes"/>
      <point x="280" y="11" type="line"/>
      <point x="283" y="-4"/>
      <point x="288" y="-12"/>
      <point x="299" y="-12" type="curve" smooth="yes"/>
      <point x="309" y="-12"/>
      <point x="319" y="-4"/>
      <point x="328" y="11" type="curve"/>
      <point x="607" y="511" type="line" smooth="yes"/>
      <point x="639" y="568"/>
      <point x="663" y="590"/>
      <point x="688" y="590" type="curve" smooth="yes"/>
      <point x="698" y="590"/>
      <point x="709" y="587"/>
      <point x="715" y="580" type="curve"/>
      <point x="721" y="574"/>
      <point x="732" y="572"/>
      <point x="742" y="572" type="curve" smooth="yes"/>
      <point x="757" y="572"/>
      <point x="781" y="588"/>
      <point x="786" y="613" type="curve"/>
      <point x="787" y="616"/>
      <point x="787" y="619"/>
      <point x="787" y="622" type="curve" smooth="yes"/>
      <point x="787" y="646"/>
      <point x="765" y="661"/>
      <point x="737" y="661" type="curve" smooth="yes"/>
      <point x="662" y="661"/>
      <point x="600" y="583"/>
    </contour>
  </outline>
</glyph>
<glyph name="uni0493" format="2">
  <advance width="402"/>
  <unicode hex="0493"/>
  <outline>
    <contour>
      <point x="229" y="209" type="line"/>
      <point x="322" y="209" type="line"/>
      <point x="332" y="248" type="line"/>
      <point x="238" y="248" type="line"/>
      <point x="271" y="391" type="line"/>
      <point x="358" y="391" type="line" smooth="yes"/>
      <point x="410" y="391"/>
      <point x="416" y="345"/>
      <point x="416" y="294" type="curve" smooth="yes"/>
      <point x="416" y="275" type="line"/>
      <point x="443" y="278" type="line"/>
      <point x="466" y="430" type="line"/>
      <point x="281" y="430" type="line"/>
      <point x="243" y="429" type="line"/>
      <point x="131" y="431" type="line"/>
      <point x="128" y="429" type="line"/>
      <point x="124" y="407" type="line"/>
      <point x="123" y="404"/>
      <point x="124" y="402"/>
      <point x="127" y="402" type="curve" smooth="yes"/>
      <point x="158" y="402" type="line" smooth="yes"/>
      <point x="183" y="402"/>
      <point x="192" y="397"/>
      <point x="192" y="381" type="curve" smooth="yes"/>
      <point x="192" y="375"/>
      <point x="190" y="366"/>
      <point x="188" y="354" type="curve"/>
      <point x="163" y="248" type="line"/>
      <point x="79" y="248" type="line"/>
      <point x="70" y="209" type="line"/>
      <point x="154" y="209" type="line"/>
      <point x="123" y="72" type="line" smooth="yes"/>
      <point x="116" y="43"/>
      <point x="103" y="28"/>
      <point x="69" y="28" type="curve" smooth="yes"/>
      <point x="46" y="28" type="line" smooth="yes"/>
      <point x="41" y="28"/>
      <point x="38" y="25"/>
      <point x="36" y="20" type="curve"/>
      <point x="32" y="1" type="line"/>
      <point x="34" y="-1" type="line"/>
      <point x="34" y="-1"/>
      <point x="106" y="1"/>
      <point x="142" y="1" type="curve" smooth="yes"/>
      <point x="181" y="1"/>
      <point x="253" y="-1"/>
      <point x="253" y="-1" type="curve"/>
      <point x="255" y="1" type="line"/>
      <point x="260" y="20" type="line"/>
      <point x="261" y="25"/>
      <point x="258" y="28"/>
      <point x="253" y="28" type="curve" smooth="yes"/>
      <point x="230" y="28" type="line" smooth="yes"/>
      <point x="205" y="28"/>
      <point x="195" y="37"/>
      <point x="195" y="55" type="curve" smooth="yes"/>
      <point x="195" y="60"/>
      <point x="196" y="65"/>
      <point x="197" y="72" type="curve"/>
    </contour>
  </outline>
</glyph>
<glyph name="uni04F6" format="2">
  <advance width="498"/>
  <unicode hex="04F6"/>
  <outline>
    <contour>
      <point x="93" y="0" type="line" smooth="yes"/>
      <point x="170" y="0"/>
      <point x="203" y="-76"/>
      <point x="203" y="-146" type="curve"/>
      <point x="230" y="-146" type="line"/>
      <point x="260" y="4" type="line"/>
      <point x="262" y="17"/>
      <point x="250" y="24"/>
      <point x="243" y="24" type="curve" smooth="yes"/>
      <point x="226" y="24" type="line" smooth="yes"/>
      <point x="203" y="24"/>
      <point x="197" y="33"/>
      <point x="197" y="48" type="curve" smooth="yes"/>
      <point x="197" y="55"/>
      <point x="198" y="63"/>
      <point x="200" y="73" type="curve" smooth="yes"/>
      <point x="297" y="574" type="line" smooth="yes"/>
      <point x="302" y="600"/>
      <point x="317" y="606"/>
      <point x="339" y="606" type="curve" smooth="yes"/>
      <point x="467" y="606" type="line" smooth="yes"/>
      <point x="532" y="606"/>
      <point x="550" y="553"/>
      <point x="552" y="481" type="curve"/>
      <point x="579" y="485" type="line"/>
      <point x="591" y="646" type="line"/>
      <point x="271" y="646" type="line" smooth="yes"/>
      <point x="258" y="646"/>
      <point x="144" y="647"/>
      <point x="144" y="647" type="curve"/>
      <point x="141" y="646" type="line"/>
      <point x="137" y="626" type="line"/>
      <point x="136" y="622"/>
      <point x="139" y="619"/>
      <point x="144" y="619" type="curve" smooth="yes"/>
      <point x="173" y="619" type="line" smooth="yes"/>
      <point x="207" y="619"/>
      <point x="219" y="612"/>
      <point x="219" y="593" type="curve" smooth="yes"/>
      <point x="219" y="587"/>
      <point x="218" y="581"/>
      <point x="216" y="574" type="curve"/>
      <point x="119" y="73" type="line" smooth="yes"/>
      <point x="113" y="42"/>
      <point x="95" y="29"/>
      <point x="56" y="29" type="curve" smooth="yes"/>
      <point x="29" y="29" type="line" smooth="yes"/>
      <point x="25" y="29"/>
      <point x="21" y="26"/>
      <point x="20" y="21" type="curve" smooth="yes"/>
      <point x="16" y="2" type="line"/>
      <point x="18" y="0" type="line"/>
    </contour>
  </outline>
</glyph>
<glyph name="uni04F7" format="2">
  <advance width="419"/>
  <unicode hex="04F7"/>
  <outline>
    <contour>
      <point x="104" y="0" type="line"/>
      <point x="107" y="0" type="line" smooth="yes"/>
      <point x="202" y="0"/>
      <point x="204" y="-91"/>
      <point x="205" y="-117" type="curve"/>
      <point x="225" y="-117" type="line"/>
      <point x="252" y="3" type="line" smooth="yes"/>
      <point x="255" y="16"/>
      <point x="244" y="23"/>
      <point x="236" y="23" type="curve" smooth="yes"/>
      <point x="220" y="23" type="line" smooth="yes"/>
      <point x="198" y="23"/>
      <point x="190" y="29"/>
      <point x="190" y="44" type="curve" smooth="yes"/>
      <point x="190" y="52"/>
      <point x="192" y="61"/>
      <point x="195" y="72" type="curve"/>
      <point x="267" y="386" type="line"/>
      <point x="379" y="386" type="line" smooth="yes"/>
      <point x="431" y="386"/>
      <point x="438" y="342"/>
      <point x="438" y="291" type="curve" smooth="yes"/>
      <point x="438" y="275" type="line"/>
      <point x="459" y="275" type="line"/>
      <point x="484" y="430" type="line"/>
      <point x="278" y="430" type="line"/>
      <point x="240" y="429" type="line"/>
      <point x="129" y="431" type="line"/>
      <point x="126" y="429" type="line"/>
      <point x="121" y="407" type="line"/>
      <point x="120" y="404"/>
      <point x="122" y="402"/>
      <point x="125" y="402" type="curve" smooth="yes"/>
      <point x="156" y="402" type="line" smooth="yes"/>
      <point x="181" y="402"/>
      <point x="189" y="397"/>
      <point x="189" y="381" type="curve" smooth="yes"/>
      <point x="189" y="375"/>
      <point x="188" y="366"/>
      <point x="185" y="354" type="curve" smooth="yes"/>
      <point x="120" y="72" type="line"/>
      <point x="114" y="43"/>
      <point x="101" y="28"/>
      <point x="67" y="28" type="curve" smooth="yes"/>
      <point x="43" y="28" type="line" smooth="yes"/>
      <point x="39" y="28"/>
      <point x="35" y="25"/>
      <point x="34" y="20" type="curve"/>
      <point x="29" y="1" type="line"/>
      <point x="31" y="-1" type="line"/>
    </contour>
  </outline>
</glyph>
<glyph name="uni05DF" format="2">
  <advance width="282"/>
  <unicode hex="05DF"/>
  <outline>
    <contour>
      <point x="60" y="-203" type="line"/>
      <point x="61" y="-203"/>
      <point x="62" y="-203"/>
      <point x="64" y="-203" type="curve"/>
      <point x="79" y="-202"/>
      <point x="138" y="-199"/>
      <point x="160" y="-78" type="curve" smooth="yes"/>
      <point x="217" y="236" type="line" smooth="yes"/>
      <point x="225" y="281"/>
      <point x="240" y="323"/>
      <point x="262" y="361" type="curve" smooth="yes"/>
      <point x="284" y="399"/>
      <point x="296" y="424"/>
      <point x="298" y="435" type="curve"/>
      <point x="301" y="445"/>
      <point x="302" y="454"/>
      <point x="302" y="461" type="curve" smooth="yes"/>
      <point x="302" y="511"/>
      <point x="258" y="514"/>
      <point x="216" y="516" type="curve" smooth="yes"/>
      <point x="195" y="517"/>
      <point x="160" y="519"/>
      <point x="160" y="552" type="curve" smooth="yes"/>
      <point x="160" y="554" type="line"/>
      <point x="160" y="554"/>
      <point x="119" y="549"/>
      <point x="102" y="476" type="curve"/>
      <point x="101" y="470"/>
      <point x="100" y="465"/>
      <point x="100" y="460" type="curve" smooth="yes"/>
      <point x="100" y="427"/>
      <point x="130" y="409"/>
      <point x="186" y="406" type="curve" smooth="yes"/>
      <point x="221" y="404"/>
      <point x="242" y="396"/>
      <point x="242" y="382" type="curve" smooth="yes"/>
      <point x="242" y="378" type="line"/>
      <point x="239" y="369"/>
      <point x="233" y="357"/>
      <point x="224" y="345" type="curve"/>
      <point x="199" y="314"/>
      <point x="184" y="287"/>
      <point x="178" y="264" type="curve" smooth="yes"/>
    </contour>
  </outline>
</glyph>
<glyph name="uni1D48" format="2">
  <advance width="307"/>
  <unicode hex="1D48"/>
  <outline>
    <contour>
      <point x="136" y="452" type="curve" smooth="yes"/>
      <point x="136" y="396"/>
      <point x="168" y="361"/>
      <point x="214" y="361" type="curve" smooth="yes"/>
      <point x="243" y="361"/>
      <point x="268" y="375"/>
      <point x="290" y="391" type="curve"/>
      <point x="282" y="357" type="line"/>
      <point x="295" y="357" type="line"/>
      <point x="321" y="370"/>
      <point x="344" y="376"/>
      <point x="376" y="380" type="curve"/>
      <point x="379" y="402" type="line"/>
      <point x="368" y="399"/>
      <point x="358" y="398"/>
      <point x="353" y="398" type="curve" smooth="yes"/>
      <point x="344" y="398"/>
      <point x="341" y="402"/>
      <point x="341" y="408" type="curve" smooth="yes"/>
      <point x="341" y="413"/>
      <point x="343" y="418"/>
      <point x="344" y="424" type="curve"/>
      <point x="417" y="739" type="line"/>
      <point x="403" y="739" type="line"/>
      <point x="377" y="727"/>
      <point x="354" y="721"/>
      <point x="323" y="717" type="curve"/>
      <point x="319" y="695" type="line"/>
      <point x="330" y="698"/>
      <point x="340" y="699"/>
      <point x="345" y="699" type="curve" smooth="yes"/>
      <point x="354" y="699"/>
      <point x="357" y="695"/>
      <point x="357" y="689" type="curve" smooth="yes"/>
      <point x="357" y="685"/>
      <point x="355" y="679"/>
      <point x="354" y="673" type="curve"/>
      <point x="340" y="610" type="line"/>
      <point x="329" y="624"/>
      <point x="307" y="631"/>
      <point x="284" y="631" type="curve" smooth="yes"/>
      <point x="200" y="631"/>
      <point x="136" y="531"/>
    </contour>
    <contour>
      <point x="188" y="447" type="curve" smooth="yes"/>
      <point x="188" y="499"/>
      <point x="215" y="605"/>
      <point x="277" y="605" type="curve" smooth="yes"/>
      <point x="303" y="605"/>
      <point x="319" y="585"/>
      <point x="330" y="566" type="curve"/>
      <point x="296" y="418" type="line"/>
      <point x="271" y="397"/>
      <point x="253" y="387"/>
      <point x="232" y="387" type="curve" smooth="yes"/>
      <point x="207" y="387"/>
      <point x="188" y="402"/>
    </contour>
  </outline>
</glyph>
<glyph name="uni1FC1" format="2">
  <advance width="368"/>
  <unicode hex="1FC1"/>
  <anchor x="266" y="500" name="_t.gr_LC"/>
  <outline>
    <contour>
      <point x="385.797" y="671" type="curve" smooth="yes"/>
      <point x="345.797" y="671"/>
      <point x="334.797" y="716"/>
      <point x="279.797" y="716" type="curve" smooth="yes"/>
      <point x="238.797" y="716"/>
      <point x="211.797" y="701.076"/>
      <point x="186.797" y="631.233" type="curve"/>
      <point x="207.797" y="626" type="line"/>
      <point x="224.797" y="657.395"/>
      <point x="241.797" y="671"/>
      <point x="262.797" y="671" type="curve" smooth="yes"/>
      <point x="301.797" y="671"/>
      <point x="322.797" y="626"/>
      <point x="364.797" y="626" type="curve" smooth="yes"/>
      <point x="407.797" y="626"/>
      <point x="439.797" y="653.209"/>
      <point x="463.797" y="712.802" type="curve"/>
      <point x="442.797" y="716" type="line"/>
      <point x="425.936" y="692"/>
      <point x="406.797" y="671"/>
    </contour>
    <contour>
      <point x="334.134" y="536.002" type="curve" smooth="yes"/>
      <point x="334.134" y="515.369"/>
      <point x="349.133" y="500"/>
      <point x="371.048" y="500" type="curve" smooth="yes"/>
      <point x="399.406" y="500"/>
      <point x="426.963" y="525.212"/>
      <point x="426.963" y="554.04" type="curve" smooth="yes"/>
      <point x="426.963" y="574.863"/>
      <point x="411.963" y="591"/>
      <point x="390.048" y="591" type="curve" smooth="yes"/>
      <point x="361.6" y="591"/>
      <point x="334.134" y="564.709"/>
    </contour>
    <contour>
      <point x="173.786" y="534.671" type="curve" smooth="yes"/>
      <point x="173.786" y="514.711"/>
      <point x="188.607" y="500"/>
      <point x="210.048" y="500" type="curve" smooth="yes"/>
      <point x="238.406" y="500"/>
      <point x="265.963" y="525.212"/>
      <point x="265.963" y="554.04" type="curve" smooth="yes"/>
      <point x="265.963" y="574.863"/>
      <point x="250.963" y="591"/>
      <point x="229.048" y="591" type="curve" smooth="yes"/>
      <point x="199.95" y="591"/>
      <point x="173.786" y="563.53"/>
    </contour>
  </outline>
</glyph>
<glyph name="uni1FFD" format="2">
  <advance width="199"/>
  <unicode hex="1FFD"/>
  <anchor x="223" y="500" name="_t.gr_UC"/>
  <anchor x="223" y="500" name="_t.gr_LC"/>
  <outline>
    <contour>
      <point x="266.29" y="683" type="curve" smooth="yes"/>
      <point x="255.29" y="683"/>
      <point x="241.58" y="676.837"/>
      <point x="235.29" y="666" type="curve" smooth="yes"/>
      <point x="152.29" y="523" type="line" smooth="yes"/>
      <point x="150.48" y="519.882"/>
      <point x="148.29" y="515"/>
      <point x="148.29" y="514" type="curve"/>
      <point x="147.29" y="507"/>
      <point x="153.29" y="500"/>
      <point x="160.29" y="500" type="curve" smooth="yes"/>
      <point x="165.29" y="500"/>
      <point x="169.814" y="504.406"/>
      <point x="173.29" y="508" type="curve" smooth="yes"/>
      <point x="291.29" y="630" type="line" smooth="yes"/>
      <point x="296.206" y="635.083"/>
      <point x="298.449" y="640.964"/>
      <point x="299.29" y="645" type="curve" smooth="yes"/>
      <point x="303.45" y="664.967"/>
      <point x="286.29" y="683"/>
    </contour>
  </outline>
</glyph>
<glyph name="uni203E" format="2">
  <advance width="423"/>
  <unicode hex="203E"/>
  <outline>
    <contour>
      <point x="522" y="688" type="line"/>
      <point x="170" y="688" type="line"/>
      <point x="161" y="644" type="line"/>
      <point x="513" y="644" type="line"/>
    </contour>
  </outline>
</glyph>
<glyph name="spesmilo" format="2">
  <advance width="526"/>
  <unicode hex="20B7"/>
  <outline>
    <contour>
      <point x="524" y="195" type="curve" smooth="yes"/>
      <point x="524" y="101"/>
      <point x="468" y="40"/>
      <point x="379" y="18" type="curve"/>
      <point x="379" y="0" type="line"/>
      <point x="339" y="0" type="line"/>
      <point x="339" y="11" type="line"/>
      <point x="329" y="10"/>
      <point x="319" y="10"/>
      <point x="308" y="10" type="curve" smooth="yes"/>
      <point x="296" y="10"/>
      <point x="284" y="11"/>
      <point x="271" y="13" type="curve"/>
      <point x="271" y="0" type="line"/>
      <point x="231" y="0" type="line"/>
      <point x="231" y="22" type="line"/>
      <point x="206" y="29"/>
      <point x="184" y="38"/>
      <point x="164" y="50" type="curve"/>
      <point x="164" y="0" type="line"/>
      <point x="124" y="0" type="line"/>
      <point x="124" y="80" type="line"/>
      <point x="93" y="109"/>
      <point x="77" y="143"/>
      <point x="77" y="180" type="curve" smooth="yes"/>
      <point x="77" y="205"/>
      <point x="95" y="239"/>
      <point x="123" y="239" type="curve" smooth="yes"/>
      <point x="146" y="239"/>
      <point x="159" y="226"/>
      <point x="162" y="199" type="curve"/>
      <point x="178" y="226"/>
      <point x="195" y="240"/>
      <point x="212" y="240" type="curve" smooth="yes"/>
      <point x="237" y="240"/>
      <point x="255" y="226"/>
      <point x="266" y="197" type="curve"/>
      <point x="280" y="226"/>
      <point x="298" y="240"/>
      <point x="320" y="240" type="curve" smooth="yes"/>
      <point x="359" y="240"/>
      <point x="379" y="207"/>
      <point x="379" y="142" type="curve" smooth="yes"/>
      <point x="379" y="49" type="line"/>
      <point x="438" y="70"/>
      <point x="467" y="108"/>
      <point x="467" y="165" type="curve" smooth="yes"/>
      <point x="467" y="231"/>
      <point x="426" y="277"/>
      <point x="363" y="293" type="curve" smooth="yes"/>
      <point x="246" y="322" type="line" smooth="yes"/>
      <point x="173" y="340"/>
      <point x="129" y="411"/>
      <point x="129" y="485" type="curve" smooth="yes"/>
      <point x="129" y="582"/>
      <point x="205" y="658"/>
      <point x="302" y="658" type="curve" smooth="yes"/>
      <point x="355" y="658"/>
      <point x="402" y="637"/>
      <point x="445" y="595" type="curve"/>
      <point x="476" y="646" type="line" smooth="yes"/>
      <point x="481" y="654"/>
      <point x="486" y="658"/>
      <point x="489" y="658" type="curve" smooth="yes"/>
      <point x="497" y="658"/>
      <point x="500" y="653"/>
      <point x="500" y="643" type="curve" smooth="yes"/>
      <point x="500" y="449" type="line" smooth="yes"/>
      <point x="500" y="441"/>
      <point x="496" y="436"/>
      <point x="488" y="436" type="curve" smooth="yes"/>
      <point x="482" y="436"/>
      <point x="479" y="440"/>
      <point x="477" y="446" type="curve"/>
      <point x="460" y="548"/>
      <point x="425" y="633"/>
      <point x="303" y="633" type="curve" smooth="yes"/>
      <point x="237" y="633"/>
      <point x="186" y="582"/>
      <point x="186" y="516" type="curve" smooth="yes"/>
      <point x="186" y="459"/>
      <point x="215" y="418"/>
      <point x="276" y="403" type="curve" smooth="yes"/>
      <point x="390" y="375" type="line" smooth="yes"/>
      <point x="474" y="354"/>
      <point x="524" y="282"/>
    </contour>
    <contour>
      <point x="339" y="39" type="curve"/>
      <point x="339" y="176" type="line" smooth="yes"/>
      <point x="339" y="209"/>
      <point x="332" y="226"/>
      <point x="317" y="226" type="curve" smooth="yes"/>
      <point x="281" y="226"/>
      <point x="271" y="159"/>
      <point x="271" y="132" type="curve" smooth="yes"/>
      <point x="271" y="41" type="line"/>
      <point x="285" y="38"/>
      <point x="297" y="37"/>
      <point x="307" y="37" type="curve" smooth="yes"/>
      <point x="317" y="37"/>
      <point x="328" y="38"/>
    </contour>
    <contour>
      <point x="231" y="180" type="line" smooth="yes"/>
      <point x="231" y="211"/>
      <point x="224" y="226"/>
      <point x="210" y="226" type="curve" smooth="yes"/>
      <point x="174" y="226"/>
      <point x="164" y="159"/>
      <point x="164" y="132" type="curve" smooth="yes"/>
      <point x="164" y="80" type="line"/>
      <point x="184" y="68"/>
      <point x="206" y="58"/>
      <point x="231" y="51" type="curve"/>
    </contour>
    <contour>
      <point x="124" y="112" type="curve"/>
      <point x="124" y="176" type="line" smooth="yes"/>
      <point x="124" y="194"/>
      <point x="121" y="203"/>
      <point x="115" y="203" type="curve" smooth="yes"/>
      <point x="103" y="203"/>
      <point x="97" y="193"/>
      <point x="97" y="172" type="curve" smooth="yes"/>
      <point x="97" y="151"/>
      <point x="106" y="131"/>
    </contour>
  </outline>
</glyph>
<glyph name="propersubset" format="2">
  <advance width="522"/>
  <unicode hex="2282"/>
  <outline>
    <contour>
      <point x="500" y="85" type="line"/>
      <point x="288" y="85" type="line" smooth="yes"/>
      <point x="177" y="85"/>
      <point x="107" y="110"/>
      <point x="129" y="227" type="curve" smooth="yes"/>
      <point x="150" y="331"/>
      <point x="243" y="354"/>
      <point x="340" y="354" type="curve" smooth="yes"/>
      <point x="552" y="354" type="line"/>
      <point x="561" y="396" type="line"/>
      <point x="348" y="396" type="line" smooth="yes"/>
      <point x="220" y="396"/>
      <point x="109" y="373"/>
      <point x="81" y="226" type="curve" smooth="yes"/>
      <point x="50" y="71"/>
      <point x="156" y="43"/>
      <point x="279" y="43" type="curve" smooth="yes"/>
      <point x="492" y="43" type="line"/>
    </contour>
  </outline>
</glyph>
<glyph name="twentycircle" format="2">
  <advance width="874"/>
  <unicode hex="2473"/>
  <outline>
    <contour>
      <point x="498" y="-82" type="curve" smooth="yes"/>
      <point x="716" y="-82"/>
      <point x="895" y="97"/>
      <point x="895" y="315" type="curve" smooth="yes"/>
      <point x="895" y="533"/>
      <point x="716" y="712"/>
      <point x="498" y="712" type="curve" smooth="yes"/>
      <point x="280" y="712"/>
      <point x="102" y="534"/>
      <point x="102" y="315" type="curve" smooth="yes"/>
      <point x="102" y="96"/>
      <point x="280" y="-82"/>
    </contour>
    <contour>
      <point x="498" y="662" type="curve" smooth="yes"/>
      <point x="688" y="662"/>
      <point x="842" y="505"/>
      <point x="842" y="315" type="curve" smooth="yes"/>
      <point x="842" y="126"/>
      <point x="687" y="-32"/>
      <point x="497" y="-32" type="curve" smooth="yes"/>
      <point x="308" y="-32"/>
      <point x="155" y="124"/>
      <point x="155" y="315" type="curve" smooth="yes"/>
      <point x="155" y="505"/>
      <point x="308" y="662"/>
    </contour>
    <contour>
      <point x="348.384" y="500.613" type="curve" smooth="yes"/>
      <point x="311.184" y="482.613"/>
      <point x="278.184" y="458.013"/>
      <point x="278.184" y="423.813" type="curve" smooth="yes"/>
      <point x="278.184" y="410.613"/>
      <point x="287.184" y="396.813"/>
      <point x="305.184" y="396.813" type="curve" smooth="yes"/>
      <point x="321.384" y="396.813"/>
      <point x="339.984" y="404.613"/>
      <point x="343.584" y="423.213" type="curve" smooth="yes"/>
      <point x="344.784" y="430.413"/>
      <point x="343.584" y="436.413"/>
      <point x="342.384" y="441.813" type="curve"/>
      <point x="341.784" y="445.413"/>
      <point x="341.184" y="448.413"/>
      <point x="341.184" y="451.413" type="curve" smooth="yes"/>
      <point x="341.184" y="455.013"/>
      <point x="341.784" y="458.013"/>
      <point x="343.584" y="461.613" type="curve" smooth="yes"/>
      <point x="350.184" y="474.213"/>
      <point x="363.384" y="480.813"/>
      <point x="386.184" y="480.813" type="curve" smooth="yes"/>
      <point x="389.184" y="480.813"/>
      <point x="392.784" y="480.813"/>
      <point x="395.784" y="480.213" type="curve" smooth="yes"/>
      <point x="417.384" y="476.013"/>
      <point x="434.184" y="458.013"/>
      <point x="434.184" y="430.413" type="curve" smooth="yes"/>
      <point x="434.184" y="388.413"/>
      <point x="420.384" y="359.613"/>
      <point x="386.184" y="324.213" type="curve" smooth="yes"/>
      <point x="383.784" y="321.813"/>
      <point x="381.384" y="319.413"/>
      <point x="378.984" y="317.013" type="curve" smooth="yes"/>
      <point x="336.984" y="273.213" type="line"/>
      <point x="336.984" y="273.213" type="line"/>
      <point x="285.984" y="220.413"/>
      <point x="257.184" y="192.813"/>
      <point x="239.184" y="176.013" type="curve"/>
      <point x="234.984" y="172.413" type="line"/>
      <point x="231.384" y="166.413"/>
      <point x="230.184" y="155.613"/>
      <point x="232.584" y="150.813" type="curve"/>
      <point x="249.984" y="150.813"/>
      <point x="267.984" y="150.813"/>
      <point x="285.384" y="150.813" type="curve" smooth="yes"/>
      <point x="390.984" y="150.813" type="line" smooth="yes"/>
      <point x="408.384" y="150.813"/>
      <point x="426.384" y="150.813"/>
      <point x="443.784" y="150.813" type="curve"/>
      <point x="455.184" y="173.613"/>
      <point x="470.784" y="215.013"/>
      <point x="482.184" y="249.213" type="curve"/>
      <point x="475.584" y="252.813"/>
      <point x="471.384" y="255.213"/>
      <point x="458.184" y="255.213" type="curve"/>
      <point x="437.184" y="214.413"/>
      <point x="431.184" y="210.213"/>
      <point x="405.984" y="210.213" type="curve" smooth="yes"/>
      <point x="321.384" y="210.213" type="line"/>
      <point x="333.384" y="224.013"/>
      <point x="343.584" y="235.413"/>
      <point x="365.184" y="255.213" type="curve" smooth="yes"/>
      <point x="397.584" y="284.613" type="line" smooth="yes"/>
      <point x="410.184" y="296.013"/>
      <point x="422.184" y="306.813"/>
      <point x="432.384" y="316.413" type="curve" smooth="yes"/>
      <point x="488.784" y="366.813"/>
      <point x="512.784" y="392.013"/>
      <point x="512.784" y="440.013" type="curve" smooth="yes"/>
      <point x="512.784" y="443.613"/>
      <point x="512.784" y="447.213"/>
      <point x="512.184" y="450.213" type="curve"/>
      <point x="505.584" y="491.013"/>
      <point x="461.184" y="516.813"/>
      <point x="416.184" y="516.813" type="curve" smooth="yes"/>
      <point x="387.384" y="516.813"/>
      <point x="368.784" y="510.213"/>
    </contour>
    <contour>
      <point x="588.384" y="151.001" type="curve" smooth="yes"/>
      <point x="706.19" y="151.001"/>
      <point x="765.984" y="312.982"/>
      <point x="765.984" y="409.001" type="curve" smooth="yes"/>
      <point x="765.984" y="496.001"/>
      <point x="716.784" y="523.001"/>
      <point x="670.584" y="523.001" type="curve" smooth="yes"/>
      <point x="554.256" y="523.001"/>
      <point x="494.184" y="370.291"/>
      <point x="494.184" y="274.001" type="curve" smooth="yes"/>
      <point x="494.184" y="203.801"/>
      <point x="524.184" y="151.001"/>
    </contour>
    <contour>
      <point x="594.384" y="176.801" type="curve" smooth="yes"/>
      <point x="572.184" y="176.801"/>
      <point x="565.584" y="199.001"/>
      <point x="565.584" y="227.801" type="curve" smooth="yes"/>
      <point x="565.584" y="277.139"/>
      <point x="599.788" y="496.001"/>
      <point x="664.584" y="496.001" type="curve" smooth="yes"/>
      <point x="689.307" y="496.001"/>
      <point x="691.584" y="454.892"/>
      <point x="691.584" y="438.401" type="curve" smooth="yes"/>
      <point x="691.584" y="396.433"/>
      <point x="655.246" y="176.801"/>
    </contour>
  </outline>
</glyph>
<glyph name="u1D106" format="2">
  <advance width="599"/>
  <unicode hex="1D106"/>
  <outline>
    <contour>
      <point x="68" y="-233" type="line"/>
      <point x="184" y="-233" type="line"/>
      <point x="315" y="698" type="line"/>
      <point x="199" y="698" type="line"/>
    </contour>
    <contour>
      <point x="245" y="-233" type="line"/>
      <point x="301" y="-233" type="line"/>
      <point x="432" y="698" type="line"/>
      <point x="376" y="698" type="line"/>
    </contour>
    <contour>
      <point x="394" y="59" type="curve" smooth="yes"/>
      <point x="394" y="21"/>
      <point x="426" y="-9"/>
      <point x="466" y="-9" type="curve" smooth="yes"/>
      <point x="506" y="-9"/>
      <point x="540" y="23"/>
      <point x="540" y="61" type="curve" smooth="yes"/>
      <point x="540" y="100"/>
      <point x="508" y="130"/>
      <point x="468" y="130" type="curve" smooth="yes"/>
      <point x="428" y="130"/>
      <point x="394" y="98"/>
    </contour>
    <contour>
      <point x="454" y="359" type="curve" smooth="yes"/>
      <point x="454" y="321"/>
      <point x="486" y="291"/>
      <point x="526" y="291" type="curve" smooth="yes"/>
      <point x="566" y="291"/>
      <point x="600" y="323"/>
      <point x="600" y="361" type="curve" smooth="yes"/>
      <point x="600" y="400"/>
      <point x="568" y="430"/>
      <point x="528" y="430" type="curve" smooth="yes"/>
      <point x="488" y="430"/>
      <point x="454" y="398"/>
    </contour>
  </outline>
</glyph>
<glyph name="breve.cap" format="2">
  <anchor x="-165" y="740" name="_top"/>
  <outline>
    <contour>
      <point x="-11" y="865" type="curve"/>
      <point x="-38" y="868" type="line"/>
      <point x="-50" y="829"/>
      <point x="-105" y="814"/>
      <point x="-154" y="814" type="curve" smooth="yes"/>
      <point x="-207" y="814"/>
      <point x="-251" y="829"/>
      <point x="-254" y="868" type="curve"/>
      <point x="-282" y="865" type="line"/>
      <point x="-282" y="859"/>
      <point x="-282" y="853"/>
      <point x="-282" y="848" type="curve"/>
      <point x="-279" y="786"/>
      <point x="-231" y="740"/>
      <point x="-164" y="740" type="curve" smooth="yes"/>
      <point x="-98" y="740"/>
      <point x="-27" y="794"/>
    </contour>
  </outline>
</glyph>
<glyph name="h.alt" format="2">
  <advance width="571"/>
  <anchor x="451" y="740" name="top"/>
  <outline>
    <contour>
      <point x="338" y="583" type="line" smooth="yes"/>
      <point x="345" y="616"/>
      <point x="353" y="645"/>
      <point x="353" y="665" type="curve" smooth="yes"/>
      <point x="353" y="686"/>
      <point x="346" y="698"/>
      <point x="323" y="698" type="curve" smooth="yes"/>
      <point x="292" y="698"/>
      <point x="200" y="679"/>
      <point x="157" y="672" type="curve"/>
      <point x="151" y="660"/>
      <point x="149" y="647"/>
      <point x="152" y="638" type="curve"/>
      <point x="152" y="638"/>
      <point x="152" y="638"/>
      <point x="152" y="638" type="curve"/>
      <point x="214" y="638"/>
      <point x="230" y="632"/>
      <point x="214" y="563" type="curve" smooth="yes"/>
      <point x="104" y="72" type="line" smooth="yes"/>
      <point x="99" y="48"/>
      <point x="91" y="27"/>
      <point x="91" y="17" type="curve" smooth="yes"/>
      <point x="91" y="13"/>
      <point x="92" y="9"/>
      <point x="93" y="6" type="curve"/>
      <point x="99" y="-4"/>
      <point x="115" y="-10"/>
      <point x="157" y="-10" type="curve"/>
      <point x="157" y="-10" type="line"/>
      <point x="218" y="-10"/>
      <point x="217" y="33"/>
      <point x="226" y="72" type="curve" smooth="yes"/>
      <point x="280" y="318" type="line"/>
      <point x="328" y="355"/>
      <point x="350" y="366"/>
      <point x="381" y="366" type="curve" smooth="yes"/>
      <point x="410" y="366"/>
      <point x="436" y="345"/>
      <point x="436" y="281" type="curve" smooth="yes"/>
      <point x="436" y="14"/>
      <point x="280" y="-150"/>
      <point x="173" y="-217" type="curve"/>
      <point x="173" y="-226"/>
      <point x="176" y="-234"/>
      <point x="181" y="-239" type="curve"/>
      <point x="309" y="-190"/>
      <point x="569" y="-18"/>
      <point x="569" y="289" type="curve"/>
      <point x="569" y="289"/>
      <point x="569" y="289"/>
      <point x="569" y="289" type="curve"/>
      <point x="569" y="369.729"/>
      <point x="533.216" y="438"/>
      <point x="446" y="438" type="curve" smooth="yes"/>
      <point x="391" y="438"/>
      <point x="343" y="424"/>
      <point x="294" y="385" type="curve"/>
    </contour>
  </outline>
</glyph>
<glyph name="s.sc" format="2">
  <advance width="409"/>
  <anchor x="316" y="530" name="top"/>
  <outline>
    <contour>
      <point x="70" y="156" type="curve"/>
      <point x="63" y="103"/>
      <point x="58" y="53"/>
      <point x="58" y="13" type="curve"/>
      <point x="87.6364" y="-1.81822"/>
      <point x="157.518" y="-10"/>
      <point x="189" y="-10" type="curve" smooth="yes"/>
      <point x="297.572" y="-10"/>
      <point x="402" y="38.493"/>
      <point x="402" y="162" type="curve"/>
      <point x="402" y="219.662"/>
      <point x="356.508" y="260.814"/>
      <point x="303" y="290" type="curve" smooth="yes"/>
      <point x="281" y="302" type="line" smooth="yes"/>
      <point x="250.632" y="318.486"/>
      <point x="233.815" y="337.982"/>
      <point x="233.815" y="363.104" type="curve" smooth="yes"/>
      <point x="233.815" y="401.116"/>
      <point x="268.249" y="428"/>
      <point x="306" y="428" type="curve"/>
      <point x="360.917" y="428"/>
      <point x="380.353" y="376.88"/>
      <point x="388" y="331" type="curve"/>
      <point x="405" y="328"/>
      <point x="416" y="329"/>
      <point x="427" y="336" type="curve"/>
      <point x="435" y="375"/>
      <point x="439" y="413"/>
      <point x="437" y="447" type="curve"/>
      <point x="407.222" y="466.852"/>
      <point x="357.413" y="473"/>
      <point x="323" y="473" type="curve" smooth="yes"/>
      <point x="233.666" y="473"/>
      <point x="115.534" y="415.184"/>
      <point x="115.72" y="311.408" type="curve" smooth="yes"/>
      <point x="115.821" y="255.025"/>
      <point x="161.443" y="214.363"/>
      <point x="205" y="188" type="curve" smooth="yes"/>
      <point x="243" y="165" type="line" smooth="yes"/>
      <point x="271.758" y="147.594"/>
      <point x="282" y="125.024"/>
      <point x="282" y="104" type="curve" smooth="yes"/>
      <point x="282" y="53.0027"/>
      <point x="241.409" y="32"/>
      <point x="196" y="32" type="curve" smooth="yes"/>
      <point x="123.882" y="32"/>
      <point x="114.084" y="102.073"/>
      <point x="109" y="158" type="curve"/>
      <point x="94" y="161"/>
      <point x="86" y="160"/>
    </contour>
  </outline>
</glyph>
<glyph name="uni03060300" format="2">
  <anchor x="-187" y="500" name="_top"/>
  <outline>
    <contour>
      <point x="-287" y="653" type="curve"/>
      <point x="-322" y="643" type="line"/>
      <point x="-326" y="562"/>
      <point x="-282" y="500"/>
      <point x="-201" y="500" type="curve" smooth="yes"/>
      <point x="-150" y="500"/>
      <point x="-66" y="538"/>
      <point x="-42" y="643" type="curve"/>
      <point x="-72" y="653" type="line"/>
      <point x="-84" y="589"/>
      <point x="-143" y="574"/>
      <point x="-190" y="574" type="curve" smooth="yes"/>
      <point x="-253" y="574"/>
      <point x="-293" y="599"/>
    </contour>
    <contour>
      <point x="-212" y="737" type="line"/>
      <point x="-215" y="738"/>
      <point x="-223" y="739"/>
      <point x="-228" y="739" type="curve" smooth="yes"/>
      <point x="-259" y="739"/>
      <point x="-269" y="732"/>
      <point x="-275" y="721" type="curve"/>
      <point x="-275" y="703" type="line"/>
      <point x="-214" y="642" type="line" smooth="yes"/>
      <point x="-200" y="628"/>
      <point x="-188" y="626"/>
      <point x="-178" y="626" type="curve" smooth="yes"/>
      <point x="-170" y="626"/>
      <point x="-164" y="633"/>
      <point x="-164" y="640" type="curve" smooth="yes"/>
      <point x="-164" y="646"/>
      <point x="-165" y="654"/>
      <point x="-171" y="664" type="curve"/>
    </contour>
  </outline>
</glyph>
<glyph name="uni0414.loclBGR" format="2">
  <advance width="689"/>
  <outline>
    <contour>
      <point x="-1" y="-160" type="line"/>
      <point x="34" y="-160" type="line"/>
      <point x="55" y="-101"/>
      <point x="98" y="0"/>
      <point x="181" y="0" type="curve" smooth="yes"/>
      <point x="519" y="0" type="line" smooth="yes"/>
      <point x="593" y="0"/>
      <point x="599" y="-96"/>
      <point x="599" y="-160" type="curve"/>
      <point x="634" y="-160" type="line"/>
      <point x="658" y="15" type="line"/>
      <point x="658" y="49.5169"/>
      <point x="627.026" y="66"/>
      <point x="598.937" y="66" type="curve" smooth="yes"/>
      <point x="117" y="66" type="line" smooth="yes"/>
      <point x="59.8598" y="66"/>
      <point x="40" y="37"/>
      <point x="34" y="8" type="curve" smooth="yes"/>
    </contour>
    <contour>
      <point x="424" y="520" type="line"/>
      <point x="430" y="520" type="line"/>
      <point x="462.125" y="0" type="line"/>
      <point x="603.385" y="0" type="line"/>
      <point x="544" y="658" type="line"/>
      <point x="539" y="658" type="line"/>
      <point x="524" y="647"/>
      <point x="440" y="614"/>
      <point x="430" y="614" type="curve"/>
      <point x="82.7922" y="0" type="line"/>
      <point x="153.172" y="0" type="line"/>
    </contour>
  </outline>
  <guideline angle="60.7824" x="174" y="73"/>
  <guideline angle="239.118" x="430" y="614"/>
  <guideline angle="277.897" x="430" y="520"/>
  <guideline angle="98.5891" x="631" y="82"/>
</glyph>
